 http://www.shotpix.com/images/67079018403079173118.jpg

Okay So I Was Searching For A Song Which I Heard Back When I Was A Kid & I Came Across This One, I Liked It & Wanted To Share It So That Everyone Can Listen & Appreciate These New Talented Artists. P.s The Chick Is HotΓÇª

File Info

General
Complete name                            : Mike Stud ft. Missy Modell - Can't Stop Me.MP4
Format                                   : MPEG-4
Format profile                           : Base Media / Version 2
Codec ID                                 : mp42
File size                                : 100 MiB
Duration                                 : 3mn 9s
Overall bit rate mode                    : Variable
Overall bit rate                         : 4 424 Kbps
Encoded date                             : UTC 2011-05-10 18:19:30
Tagged date                              : UTC 2011-05-10 18:19:30

Video
ID                                       : 1
Format                                   : AVC
Format/Info                              : Advanced Video Codec
Format profile                           : High@L4.0
Format settings, CABAC                   : Yes
Format settings, ReFrames                : 1 frame
Codec ID                                 : avc1
Codec ID/Info                            : Advanced Video Coding
Duration                                 : 3mn 9s
Bit rate                                 : 4 269 Kbps
Maximum bit rate                         : 7 712 Kbps
Width                                    : 1 920 pixels
Height                                   : 1 080 pixels
Display aspect ratio                     : 16:9
Frame rate mode                          : Variable
Frame rate                               : 24.000 fps
Minimum frame rate                       : 23.810 fps
Maximum frame rate                       : 24.390 fps
Color space                              : YUV
Chroma subsampling                       : 4:2:0
Bit depth                                : 8 bits
Scan type                                : Progressive
Bits/(Pixel*Frame)                       : 0.086
Stream size                              : 96.6 MiB (96%)
Tagged date                              : UTC 2011-05-10 18:19:33

Audio
ID                                       : 2
Format                                   : AAC
Format/Info                              : Advanced Audio Codec
Format profile                           : LC
Codec ID                                 : 40
Duration                                 : 3mn 9s
Bit rate mode                            : Variable
Bit rate                                 : 149 Kbps
Maximum bit rate                         : 212 Kbps
Channel(s)                               : 2 channels
Channel positions                        : Front: L R
Sampling rate                            : 44.1 KHz
Compression mode                         : Lossy
Stream size                              : 3.38 MiB (3%)
Title                                    : (C) 2007 Google Inc. v08.13.2007.
Encoded date                             : UTC 2011-05-10 18:19:32
Tagged date                              : UTC 2011-05-10 18:19:33

Shared By Sbyky 
http://www.shotpix.com/images/44754371308196111667.gif